Coordinates
version=1
nRows=14
nColumns=24
inDegrees=yes

Units are S.I. units (second, meters, Newtons, ...)
Angles are in degrees.

endheader
time	pelvis_tilt	pelvis_list	pelvis_rotation	pelvis_tx	pelvis_ty	pelvis_tz	hip_flexion_r	hip_adduction_r	hip_rotation_r	knee_angle_r	ankle_angle_r	subtalar_angle_r	mtp_angle_r	hip_flexion_l	hip_adduction_l	hip_rotation_l	knee_angle_l	ankle_angle_l	subtalar_angle_l	mtp_angle_l	lumbar_extension	lumbar_bending	lumbar_rotation
      1.40700000	      4.07891525	     -0.94893496	     -5.12932957	      0.94058811	      0.97182040	      0.33438730	    -29.95936740	     -0.03816388	      1.98969749	     -2.69299836	     13.07708493	      5.73208399	      6.18027088	     19.29194617	     -2.00420427	     -0.00675964	      6.67441213	      1.52036012	     -6.40650849	     -2.06055435	    -17.81413052	      5.28641881	      8.91367802
      1.41116667	      4.04701358	     -0.74304747	     -5.14260529	      0.94677818	      0.97119890	      0.33384934	    -30.12731934	     -0.30201774	      1.84914808	     -2.95928495	     12.76274177	      5.72233819	      6.19452027	     19.45355197	     -1.70478187	      0.18821510	      5.89571410	      1.31389148	     -6.66158382	     -2.06821389	    -17.70842868	      4.98250938	      8.91583287
      1.41533333	      3.97611263	     -0.55074294	     -5.14692533	      0.95297903	      0.97054104	      0.33326540	    -30.22801956	     -0.54712464	      1.68197891	     -3.27919035	     12.46658241	      5.78902135	      6.32118279	     19.62216199	     -1.41558930	      0.58466905	      5.19557384	      0.80810379	     -7.39356647	     -2.05911287	    -17.58598142	      4.72574659	      8.92931894
      1.41950000	      3.94308722	     -0.31472713	     -5.15973063	      0.95926554	      0.96998312	      0.33272261	    -30.38258834	     -0.83636466	      1.53861402	     -3.56664854	     12.09424304	      5.72711907	      6.37044017	     19.78605453	     -1.07998885	      0.73819473	      4.39895084	      0.46166797	     -7.69389313	     -2.05210578	    -17.46841452	      4.37135713	      8.92567528
      1.42366667	      3.85775387	     -0.09836309	     -5.16220259	      0.96556947	      0.96938030	      0.33211952	    -30.46653431	     -1.10064016	      1.39220660	     -3.88246333	     11.73322197	      5.74495847	      6.60197014	     19.95562534	     -0.75912593	      1.14775324	      3.71686452	     -0.25524870	     -8.59516365	     -1.99645490	    -17.31407439	      4.09133086	      8.96146049
      1.42783333	      3.80296192	      0.14907414	     -5.17723614	      0.97192123	      0.96887023	      0.33153997	    -30.56622744	     -1.40068280	      1.23088582	     -4.22627757	     11.31263347	      5.69633157	      6.92643375	     20.10060484	     -0.40671957	      1.42340650	      3.00512381	     -0.91723844	     -9.29404024	     -1.91813949	    -17.18585093	      3.74686355	      8.96310776
      1.43200000	      3.72412874	      0.40516023	     -5.19211128	      0.97831231	      0.96836653	      0.33095306	    -30.62987552	     -1.70589818	      1.08756519	     -4.58729539	     10.87706235	      5.63060750	      7.31407512	     20.27888575	     -0.04648068	      1.66309286	      2.28578580	     -1.64800920	     -9.97681598	     -1.81347047	    -17.02777200	      3.40113049	      8.98223812
      1.43616667	      3.68438293	      0.68984312	     -5.20994471	      0.98473900	      0.96795072	      0.33036798	    -30.71846179	     -2.04142599	      0.89668628	     -4.96576848	     10.31986071	      5.42709187	     12.98119676	     20.42286554	      0.34583137	      1.81413293	      1.54927668	     -2.41263763	    -10.60620378	     -0.22526998	    -16.91271087	      3.00560630	      8.95339232
      1.44033333	      3.57544298	      0.95810963	     -5.21616102	      0.99120390	      0.96749704	      0.32974426	    -30.72700867	     -2.35150414	      0.73608081	     -5.36310801	      9.80755070	      5.37650268	     13.06104785	     20.65980458	      0.72039030	      1.96964323	      0.76720450	     -3.18472761	    -11.23886903	     -0.25555589	    -16.70381210	      2.64124300	      9.01293242
      1.44450000	      3.50010148	      1.25388601	     -5.23569325	      0.99770244	      0.96713358	      0.32914114	    -30.74654180	     -2.69503052	      0.56546316	     -5.80411942	      9.26606234	      5.26801128	     13.23053106	     20.84451337	      1.12136393	      2.11271245	      0.01464831	     -4.00795088	    -11.93251290	     -0.26546828	    -16.53676940	      2.24075948	      9.02717799
      1.44866667	      3.41252595	      1.55213847	     -5.24584499	      1.00422215	      0.96680106	      0.32852087	    -30.74439056	     -3.03417002	      0.39921144	     -6.25635837	      8.70003489	      5.14872620	     13.47584969	     21.05556206	      1.52515882	      2.20240382	     -0.76507056	     -4.84209754	    -12.58140320	     -0.26179707	    -16.35029512	      1.84020385	      9.05055298
      1.45283333	      3.31959123	      1.85108522	     -5.25303087	      1.01073229	      0.96650828	      0.32788855	    -30.71125282	     -3.37112676	      0.23842655	     -6.75002395	      8.09550804	      4.99804347	     13.82029828	     21.28251758	      1.92806346	      2.27683369	     -1.56576457	     -5.66727844	    -13.19508926	     -0.23780119	    -16.16336280	      1.43921697	      9.07364268
      1.45700000	      3.23214475	      2.17341924	     -5.25897746	      1.01732424	      0.96626920	      0.32725130	    -30.67439806	     -3.73051807	      0.05850703	     -7.25990671	      7.44535751	      4.84252193	     14.34853442	     21.49840386	      2.35457338	      2.31953208	     -2.37321509	     -6.45974157	    -13.79178166	     -0.19922149	    -15.97244409	      1.01032079	      9.10516700
      1.46116667	      3.18119390	      2.51355545	     -5.26603067	      1.02392759	      0.96611318	      0.32663280	    -30.66874715	     -4.10808197	     -0.12268062	     -7.77583547	      6.74472807	      4.68264036	     14.49493686	     21.72863562	      2.79050454	      2.17584692	     -3.30192372	     -6.99453817	    -14.00492772	     -0.19569677	    -15.82240410	      0.54440550	      9.07775835
